<svg id="Layer_1" data-name="Layer 1" xmlns="http://www.w3.org/2000/svg" viewBox="0 0 256 256"><defs><style>.cls-1{fill:#fff;}.cls-2{fill:#010101;}.cls-3{fill:#1176bc;}.cls-4{fill:#fec340;}.cls-5{fill:#939598;}</style></defs><rect class="cls-1" width="256" height="256"/><path class="cls-2" d="M24.48,143v-28q0-11.79,4.41-16.29a13.54,13.54,0,0,1,5.22-3.39A21.82,21.82,0,0,1,39.49,94q2.31-.2,6.31-.2h9v8.6H44c-1.37,0-2.42,0-3.18.11a9.81,9.81,0,0,0-2.66.71,6.73,6.73,0,0,0-2.66,1.95q-2,2.46-2,9.84v28Z"/><path class="cls-2" d="M80.94,92.81q17.43.72,17.42,14.45,0,17.11-22.44,17.11h-4.2v-7.89h4.92q6.85,0,9.53-2.1t2.66-7a5.36,5.36,0,0,0-2.35-4.76,10.63,10.63,0,0,0-6-1.59q-7.28,0-11.43,5.12a19,19,0,0,0-4.15,12.3c0,5.06,1.49,9.15,4.46,12.3a15.28,15.28,0,0,0,11.63,4.71,16.74,16.74,0,0,0,10.56-3.18l6.15,6.05a25.7,25.7,0,0,1-16.71,5.74q-11.68,0-18.65-6.87t-7-17.73q0-12.09,6.87-19.57T80.94,92.81Z"/><path class="cls-2" d="M101.44,143v-4.1a20.87,20.87,0,0,1,2.2-9.37,30,30,0,0,1,5.53-7.84q3.33-3.39,6.77-6.35t6.55-6.25a19.39,19.39,0,0,0,4.26-6.26H101.54v-9H137.2v5a18,18,0,0,1-2.21,8.61,30,30,0,0,1-5.58,7.37q-3.37,3.28-6.92,6.25a86.12,86.12,0,0,0-6.76,6.36,22.2,22.2,0,0,0-4.56,6.56h26.75v9Z"/><path class="cls-3" d="M145.09,71.29h9.22v47.14q0,8.1,4.15,12.55t11.42,4.46q7.59,0,11.89-4.36t4.31-12.65q0-7.89-4.67-12.45t-12.24-4.56A17.57,17.57,0,0,0,158,105.11V95.89a25,25,0,0,1,12.19-3.08q10.86,0,18,7t7.12,18.6q0,12.19-7.43,18.91t-18.7,6.71q-10.77,0-17.42-7t-6.66-18.65Z"/><path class="cls-4" d="M231.47,93.84v8.6H213.33a10.9,10.9,0,0,0-5.12,1.13,3.47,3.47,0,0,0-2.15,3.18,4.66,4.66,0,0,0,.51,2.2,5.68,5.68,0,0,0,1.18,1.59,8.21,8.21,0,0,0,2.05,1.28,18.52,18.52,0,0,0,2.15.92l6.5,2.1q5.75,1.84,8.51,3.08a10.07,10.07,0,0,1,4.25,3.33,11.08,11.08,0,0,1,1.9,4.1,19.75,19.75,0,0,1,.41,3.94q0,13.74-18.86,13.73H196.94v-8.6h17.72q9.63,0,9.64-5.13c0-1.64-.94-3-2.82-4.1a29.41,29.41,0,0,0-6.87-2.76c-2.7-.75-5.4-1.63-8.09-2.62a16.14,16.14,0,0,1-6.87-4.81,12.33,12.33,0,0,1-2.82-8.25,10.94,10.94,0,0,1,4.82-9.58,20,20,0,0,1,11.68-3.33Z"/><path class="cls-5" d="M34.61,174.59a9.6,9.6,0,0,1-3.67-.71,9,9,0,0,1-3-2,9.46,9.46,0,0,1-2.74-6.75v0A9.39,9.39,0,0,1,26,161.4a9.61,9.61,0,0,1,2-3,9,9,0,0,1,3-2,9.9,9.9,0,0,1,3.83-.73,8.86,8.86,0,0,1,7.72,3.79l-3.8,2.94A6.55,6.55,0,0,0,37,160.83a4.3,4.3,0,0,0-2.27-.57,4,4,0,0,0-1.75.38,4.2,4.2,0,0,0-1.37,1,4.79,4.79,0,0,0-.89,1.54,5.29,5.29,0,0,0-.33,1.87v.05a5.48,5.48,0,0,0,.33,1.91,4.63,4.63,0,0,0,.89,1.55,4.23,4.23,0,0,0,1.37,1,4,4,0,0,0,1.75.37,4.18,4.18,0,0,0,2.36-.61,8.1,8.1,0,0,0,1.75-1.6l3.8,2.71a14.92,14.92,0,0,1-1.42,1.64,8.4,8.4,0,0,1-1.74,1.3,8.92,8.92,0,0,1-2.19.85A10.72,10.72,0,0,1,34.61,174.59Z"/><path class="cls-5" d="M66.35,174.59a10,10,0,0,1-3.9-.75,9.6,9.6,0,0,1-3.09-2,9.24,9.24,0,0,1-2-3,9.05,9.05,0,0,1-.74-3.67v0a9.23,9.23,0,0,1,2.81-6.69,9.62,9.62,0,0,1,3.12-2,10.65,10.65,0,0,1,7.8,0,9.6,9.6,0,0,1,3.09,2,9.24,9.24,0,0,1,2,3,9.09,9.09,0,0,1,.74,3.67v.05a9.28,9.28,0,0,1-2.81,6.7,9.76,9.76,0,0,1-3.12,2A10,10,0,0,1,66.35,174.59Zm0-4.55a4.59,4.59,0,0,0,1.91-.39,4.33,4.33,0,0,0,1.46-1.06,4.81,4.81,0,0,0,.93-1.54,5.14,5.14,0,0,0,.34-1.88v0a5.09,5.09,0,0,0-.34-1.87,4.63,4.63,0,0,0-1-1.56,4.75,4.75,0,0,0-1.49-1.08,4.37,4.37,0,0,0-1.9-.4A4.43,4.43,0,0,0,63,161.65a5,5,0,0,0-.94,1.55,5.29,5.29,0,0,0-.33,1.87v.05a5.29,5.29,0,0,0,.33,1.87,5,5,0,0,0,1,1.56,4.56,4.56,0,0,0,1.47,1.08A4.41,4.41,0,0,0,66.39,170Z"/><path class="cls-5" d="M91.18,156h4.71l7.49,9.62V156h5v18.2h-4.42l-7.77-10v10h-5Z"/><path class="cls-5" d="M124,156h4.71l7.48,9.62V156h5v18.2h-4.42l-7.77-10v10h-5Z"/><path class="cls-5" d="M156.76,156h14.61v4.29h-9.65v2.76h8.74v4h-8.74v2.88h9.78v4.29H156.76Z"/><path class="cls-5" d="M195.24,174.59a9.56,9.56,0,0,1-3.67-.71,8.88,8.88,0,0,1-3-2,9.46,9.46,0,0,1-2.74-6.75v0a9.44,9.44,0,0,1,2.73-6.72,9,9,0,0,1,3-2,9.85,9.85,0,0,1,3.82-.73,9.42,9.42,0,0,1,4.66,1.05,9.32,9.32,0,0,1,3.07,2.74l-3.8,2.94a6.43,6.43,0,0,0-1.72-1.56,4.24,4.24,0,0,0-2.26-.57,4,4,0,0,0-1.75.38,4.2,4.2,0,0,0-1.37,1,5,5,0,0,0-.9,1.54,5.52,5.52,0,0,0-.32,1.87v.05a5.71,5.71,0,0,0,.32,1.91,4.82,4.82,0,0,0,.9,1.55,4.23,4.23,0,0,0,1.37,1,4,4,0,0,0,1.75.37,4.15,4.15,0,0,0,2.35-.61,8.13,8.13,0,0,0,1.76-1.6l3.79,2.71a13.84,13.84,0,0,1-1.41,1.64,8.4,8.4,0,0,1-1.74,1.3,8.92,8.92,0,0,1-2.19.85A10.72,10.72,0,0,1,195.24,174.59Z"/><path class="cls-5" d="M222.27,160.44h-5.46V156h16v4.42h-5.46v13.78h-5Z"/></svg>